arm260_states
version=1
nRows=24
nColumns=17
inDegrees=yes

# SIMM Motion File Header:
name arm260_states
datacolumns 17
datarows 24
otherdata 1
range 0.74525374 0.75132010
endheader
time	/jointset/r_shoulder/r_shoulder_elev/value	/jointset/r_shoulder/r_shoulder_elev/speed	/jointset/r_elbow/r_elbow_flex/value	/jointset/r_elbow/r_elbow_flex/speed	/forceset/TRIlong/activation	/forceset/TRIlong/fiber_length	/forceset/TRIlat/activation	/forceset/TRIlat/fiber_length	/forceset/TRImed/activation	/forceset/TRImed/fiber_length	/forceset/BIClong/activation	/forceset/BIClong/fiber_length	/forceset/BICshort/activation	/forceset/BICshort/fiber_length	/forceset/BRA/activation	/forceset/BRA/fiber_length
      0.74525374	     -0.00706240	     -0.00531374	     30.01082628	     -0.00003996	      0.03438255	      0.14811708	      0.12559908	      0.08149304	      0.12184557	      0.07658943	      0.15399190	      0.13825580	      0.11305322	      0.13727331	      0.06333584	      0.08595872
      0.74580991	     -0.00706538	     -0.00538115	     30.01082638	      0.00039706	      0.03473956	      0.14811644	      0.12756573	      0.08149225	      0.12176991	      0.07658898	      0.15375096	      0.13825565	      0.11424201	      0.13727238	      0.06371782	      0.08595834
      0.74598556	     -0.00706632	     -0.00536853	     30.01082646	      0.00041504	      0.03484497	      0.14811616	      0.12815299	      0.08149186	      0.12174617	      0.07658885	      0.15367540	      0.13825562	      0.11459681	      0.13727198	      0.06383116	      0.08595819
      0.74604509	     -0.00706664	     -0.00535325	     30.01082648	      0.00038382	      0.03484614	      0.14811606	      0.12812747	      0.08149172	      0.12170034	      0.07658881	      0.15399373	      0.13825561	      0.11461084	      0.13727183	      0.06387245	      0.08595814
      0.74610462	     -0.00706696	     -0.00532563	     30.01082650	      0.00031193	      0.03484051	      0.14811596	      0.12805765	      0.08149158	      0.12164701	      0.07658877	      0.15437761	      0.13825558	      0.11460396	      0.13727169	      0.06391405	      0.08595809
      0.74640227	     -0.00706851	     -0.00506740	     30.01082649	     -0.00044375	      0.03481246	      0.14811549	      0.12770979	      0.08149095	      0.12138127	      0.07658862	      0.15624658	      0.13825524	      0.11456967	      0.13727098	      0.06411587	      0.08595779
      0.74684886	     -0.00707068	     -0.00470207	     30.01082602	     -0.00151142	      0.03477059	      0.14811487	      0.12719169	      0.08149020	      0.12098536	      0.07658851	      0.15890024	      0.13825410	      0.11451855	      0.13726998	      0.06440022	      0.08595728
      0.74698855	     -0.00707133	     -0.00469512	     30.01082581	     -0.00149469	      0.03475755	      0.14811470	      0.12703057	      0.08149001	      0.12086220	      0.07658851	      0.15969508	      0.13825360	      0.11450264	      0.13726968	      0.06448484	      0.08595710
      0.74705024	     -0.00707162	     -0.00471486	     30.01082572	     -0.00141254	      0.03475794	      0.14811462	      0.12699455	      0.08148993	      0.12089701	      0.07658851	      0.15964694	      0.13825336	      0.11444974	      0.13726955	      0.06447676	      0.08595703
      0.74711192	     -0.00707191	     -0.00474087	     30.01082563	     -0.00130959	      0.03475954	      0.14811455	      0.12696558	      0.08148985	      0.12094918	      0.07658850	      0.15951989	      0.13825314	      0.11438772	      0.13726942	      0.06445970	      0.08595695
      0.74742033	     -0.00707340	     -0.00492694	     30.01082533	     -0.00060614	      0.03476727	      0.14811419	      0.12682118	      0.08148951	      0.12120297	      0.07658846	      0.15888728	      0.13825209	      0.11407874	      0.13726886	      0.06437463	      0.08595661
      0.74792138	     -0.00707595	     -0.00521412	     30.01082533	      0.00051414	      0.03477896	      0.14811364	      0.12658831	      0.08148904	      0.12159130	      0.07658827	      0.15786888	      0.13825069	      0.11358061	      0.13726816	      0.06423730	      0.08595614
      0.74808941	     -0.00707683	     -0.00525530	     30.01082543	      0.00071672	      0.03478490	      0.14811347	      0.12657746	      0.08148891	      0.12174738	      0.07658818	      0.15759302	      0.13825031	      0.11347731	      0.13726797	      0.06421760	      0.08595601
      0.74829337	     -0.00707791	     -0.00536085	     30.01082562	      0.00113221	      0.03479687	      0.14811326	      0.12682755	      0.08148874	      0.12200292	      0.07658805	      0.15740063	      0.13824988	      0.11350637	      0.13726776	      0.06428306	      0.08595585
      0.74898519	     -0.00708179	     -0.00583330	     30.01082703	      0.00288532	      0.03483432	      0.14811256	      0.12762198	      0.08148794	      0.12281407	      0.07658735	      0.15675395	      0.13824865	      0.11359859	      0.13726704	      0.06448907	      0.08595527
      0.74927141	     -0.00708348	     -0.00594983	     30.01082793	      0.00339239	      0.03507823	      0.14811222	      0.12782225	      0.08148753	      0.12298816	      0.07658699	      0.15643376	      0.13824825	      0.11381177	      0.13726672	      0.06473152	      0.08595500
      0.74955763	     -0.00708520	     -0.00605001	     30.01082897	      0.00387957	      0.03535412	      0.14811170	      0.12799375	      0.08148711	      0.12312819	      0.07658662	      0.15610445	      0.13824792	      0.11405054	      0.13726635	      0.06499430	      0.08595468
      0.75008225	     -0.00708841	     -0.00619279	     30.01083121	      0.00456614	      0.03580391	      0.14811036	      0.12823980	      0.08148631	      0.12332902	      0.07658591	      0.15539432	      0.13824747	      0.11444678	      0.13726553	      0.06553750	      0.08595397
      0.75060686	     -0.00709167	     -0.00619479	     30.01083368	      0.00485701	      0.03611904	      0.14810870	      0.12822355	      0.08148554	      0.12331602	      0.07658524	      0.15413867	      0.13824738	      0.11473882	      0.13726461	      0.06647693	      0.08595297
      0.75088077	     -0.00709337	     -0.00622730	     30.01083505	      0.00512437	      0.03627200	      0.14810775	      0.12821513	      0.08148517	      0.12330928	      0.07658491	      0.15348911	      0.13824744	      0.11488241	      0.13726409	      0.06693491	      0.08595233
      0.75099929	     -0.00709411	     -0.00626998	     30.01083567	      0.00532128	      0.03633587	      0.14810733	      0.12821149	      0.08148501	      0.12330638	      0.07658478	      0.15320931	      0.13824748	      0.11494274	      0.13726386	      0.06712655	      0.08595203
      0.75104512	     -0.00709439	     -0.00628744	     30.01083591	      0.00539763	      0.03633552	      0.14810716	      0.12816493	      0.08148495	      0.12326242	      0.07658473	      0.15350545	      0.13824750	      0.11493278	      0.13726377	      0.06712898	      0.08595191
      0.75109095	     -0.00709468	     -0.00629814	     30.01083616	      0.00545033	      0.03633023	      0.14810700	      0.12810938	      0.08148490	      0.12320993	      0.07658468	      0.15387992	      0.13824751	      0.11491622	      0.13726368	      0.06711724	      0.08595179
      0.75132010	     -0.00709612	     -0.00626989	     30.01083741	      0.00542631	      0.03630381	      0.14810621	      0.12783241	      0.08148465	      0.12294821	      0.07658447	      0.15571337	      0.13824746	      0.11483364	      0.13726326	      0.06705867	      0.08595123
